<svg width="332" height="172" viewBox="0 0 332 172" fill="none" xmlns="http://www.w3.org/2000/svg">
<mask id="mask0_1_301" style="mask-type:alpha" maskUnits="userSpaceOnUse" x="236" y="37" width="48" height="48">
<path d="M250 59L258 41C259.591 41 261.117 41.6321 262.243 42.7574C263.368 43.8826 264 45.4087 264 47V55H275.32C275.9 54.9934 276.474 55.113 277.003 55.3504C277.532 55.5879 278.003 55.9375 278.384 56.375C278.764 56.8126 279.045 57.3276 279.207 57.8845C279.368 58.4414 279.407 59.0267 279.32 59.6L276.56 77.6C276.415 78.5538 275.931 79.4232 275.196 80.048C274.461 80.6728 273.525 81.0109 272.56 81H250M250 59V81M250 59H244C242.939 59 241.922 59.4214 241.172 60.1716C240.421 60.9217 240 61.9391 240 63V77C240 78.0609 240.421 79.0783 241.172 79.8284C241.922 80.5786 242.939 81 244 81H250" stroke="#1E1E1E" stroke-width="4" stroke-linecap="round" stroke-linejoin="round"/>
</mask>
<g mask="url(#mask0_1_301)">
<rect x="224" y="-2" width="87" height="125" fill="#11FF00" fill-opacity="0.59"/>
</g>
<mask id="mask1_1_301" style="mask-type:alpha" maskUnits="userSpaceOnUse" x="284" y="37" width="48" height="48">
<path d="M318 63L310 81C308.409 81 306.883 80.3679 305.757 79.2426C304.632 78.1174 304 76.5913 304 75V67H292.68C292.1 67.0066 291.526 66.887 290.997 66.6496C290.468 66.4121 289.997 66.0625 289.616 65.625C289.236 65.1874 288.955 64.6724 288.793 64.1155C288.632 63.5586 288.593 62.9733 288.68 62.4L291.44 44.4C291.585 43.4462 292.069 42.5768 292.804 41.952C293.539 41.3272 294.475 40.9891 295.44 41H318M318 63V41M318 63H323.34C324.472 63.02 325.572 62.6237 326.431 61.8864C327.29 61.149 327.848 60.1219 328 59V45C327.848 43.8781 327.29 42.851 326.431 42.1136C325.572 41.3763 324.472 40.98 323.34 41H318" stroke="#1E1E1E" stroke-width="4" stroke-linecap="round" stroke-linejoin="round"/>
</mask>
<g mask="url(#mask1_1_301)">
<rect x="281" y="9" width="57" height="95" fill="#F70000" fill-opacity="0.67"/>
</g>
<path d="M238.94 109V100.273H240.785V107.479H244.527V109H238.94ZM245.715 109V102.455H247.53V109H245.715ZM246.627 101.611C246.357 101.611 246.125 101.521 245.932 101.342C245.742 101.161 245.646 100.943 245.646 100.69C245.646 100.44 245.742 100.226 245.932 100.047C246.125 99.8651 246.357 99.7741 246.627 99.7741C246.896 99.7741 247.127 99.8651 247.317 100.047C247.51 100.226 247.607 100.44 247.607 100.69C247.607 100.943 247.51 101.161 247.317 101.342C247.127 101.521 246.896 101.611 246.627 101.611ZM250.629 107.116L250.633 104.939H250.898L252.994 102.455H255.078L252.261 105.744H251.831L250.629 107.116ZM248.984 109V100.273H250.8V109H248.984ZM253.075 109L251.149 106.149L252.359 104.866L255.202 109H253.075ZM258.682 109.128C258.009 109.128 257.429 108.991 256.943 108.719C256.46 108.443 256.088 108.054 255.827 107.551C255.566 107.045 255.435 106.447 255.435 105.757C255.435 105.084 255.566 104.493 255.827 103.984C256.088 103.476 256.456 103.08 256.931 102.795C257.408 102.511 257.968 102.369 258.61 102.369C259.041 102.369 259.443 102.439 259.816 102.578C260.191 102.714 260.517 102.92 260.796 103.196C261.077 103.472 261.296 103.818 261.452 104.236C261.608 104.651 261.686 105.136 261.686 105.693V106.192H256.159V105.067H259.977C259.977 104.805 259.921 104.574 259.807 104.372C259.693 104.17 259.536 104.013 259.334 103.899C259.135 103.783 258.904 103.724 258.639 103.724C258.364 103.724 258.119 103.788 257.906 103.916C257.696 104.041 257.531 104.21 257.412 104.423C257.293 104.634 257.232 104.868 257.229 105.126V106.196C257.229 106.52 257.289 106.8 257.408 107.036C257.53 107.271 257.702 107.453 257.923 107.581C258.145 107.709 258.408 107.773 258.712 107.773C258.914 107.773 259.098 107.744 259.266 107.688C259.433 107.631 259.577 107.545 259.696 107.432C259.816 107.318 259.906 107.179 259.969 107.014L261.648 107.125C261.563 107.528 261.388 107.881 261.124 108.182C260.862 108.48 260.524 108.713 260.11 108.881C259.698 109.045 259.222 109.128 258.682 109.128ZM267.515 109.124C267.097 109.124 266.725 109.051 266.398 108.906C266.072 108.759 265.813 108.541 265.623 108.254C265.435 107.964 265.341 107.604 265.341 107.172C265.341 106.808 265.408 106.503 265.542 106.256C265.675 106.009 265.857 105.81 266.087 105.659C266.317 105.509 266.579 105.395 266.871 105.318C267.167 105.241 267.476 105.188 267.8 105.156C268.181 105.116 268.488 105.08 268.721 105.045C268.954 105.009 269.123 104.955 269.228 104.884C269.333 104.812 269.385 104.707 269.385 104.568V104.543C269.385 104.273 269.3 104.064 269.13 103.916C268.962 103.768 268.724 103.695 268.414 103.695C268.087 103.695 267.827 103.767 267.634 103.912C267.441 104.054 267.313 104.233 267.251 104.449L265.572 104.312C265.657 103.915 265.824 103.571 266.074 103.281C266.324 102.989 266.647 102.764 267.042 102.608C267.439 102.449 267.9 102.369 268.422 102.369C268.786 102.369 269.134 102.412 269.466 102.497C269.802 102.582 270.099 102.714 270.357 102.893C270.618 103.072 270.824 103.303 270.975 103.584C271.126 103.862 271.201 104.196 271.201 104.585V109H269.479V108.092H269.428C269.323 108.297 269.182 108.477 269.006 108.634C268.83 108.787 268.618 108.908 268.371 108.996C268.124 109.081 267.839 109.124 267.515 109.124ZM268.035 107.871C268.302 107.871 268.537 107.818 268.742 107.713C268.947 107.605 269.107 107.46 269.224 107.278C269.34 107.097 269.398 106.891 269.398 106.661V105.966C269.341 106.003 269.263 106.037 269.164 106.068C269.067 106.097 268.958 106.124 268.836 106.149C268.714 106.172 268.591 106.193 268.469 106.213C268.347 106.23 268.236 106.246 268.137 106.26C267.924 106.291 267.738 106.341 267.579 106.409C267.42 106.477 267.296 106.57 267.208 106.686C267.12 106.8 267.076 106.942 267.076 107.112C267.076 107.359 267.165 107.548 267.344 107.679C267.526 107.807 267.756 107.871 268.035 107.871ZM274.425 105.216V109H272.609V102.455H274.339V103.609H274.416C274.561 103.229 274.804 102.928 275.145 102.706C275.486 102.482 275.899 102.369 276.385 102.369C276.839 102.369 277.236 102.469 277.574 102.668C277.912 102.866 278.175 103.151 278.362 103.52C278.55 103.886 278.643 104.324 278.643 104.832V109H276.828V105.156C276.831 104.756 276.729 104.443 276.521 104.219C276.314 103.991 276.028 103.878 275.665 103.878C275.42 103.878 275.204 103.93 275.017 104.036C274.832 104.141 274.687 104.294 274.582 104.496C274.48 104.695 274.427 104.935 274.425 105.216ZM282.486 109.107C281.989 109.107 281.539 108.979 281.135 108.723C280.735 108.464 280.416 108.085 280.181 107.585C279.948 107.082 279.831 106.466 279.831 105.736C279.831 104.986 279.952 104.362 280.193 103.865C280.435 103.365 280.756 102.991 281.156 102.744C281.56 102.494 282.002 102.369 282.482 102.369C282.848 102.369 283.154 102.432 283.398 102.557C283.645 102.679 283.844 102.832 283.994 103.017C284.148 103.199 284.264 103.378 284.344 103.554H284.399V100.273H286.21V109H284.421V107.952H284.344C284.259 108.134 284.138 108.314 283.982 108.493C283.828 108.669 283.628 108.815 283.381 108.932C283.137 109.048 282.838 109.107 282.486 109.107ZM283.061 107.662C283.354 107.662 283.601 107.582 283.803 107.423C284.007 107.261 284.164 107.036 284.271 106.746C284.382 106.456 284.438 106.116 284.438 105.727C284.438 105.338 284.384 105 284.276 104.713C284.168 104.426 284.012 104.205 283.807 104.048C283.602 103.892 283.354 103.814 283.061 103.814C282.763 103.814 282.512 103.895 282.307 104.057C282.102 104.219 281.948 104.443 281.843 104.73C281.737 105.017 281.685 105.349 281.685 105.727C281.685 106.108 281.737 106.445 281.843 106.737C281.95 107.027 282.105 107.254 282.307 107.419C282.512 107.581 282.763 107.662 283.061 107.662ZM292.892 109.107C292.395 109.107 291.945 108.979 291.541 108.723C291.141 108.464 290.823 108.085 290.587 107.585C290.354 107.082 290.237 106.466 290.237 105.736C290.237 104.986 290.358 104.362 290.6 103.865C290.841 103.365 291.162 102.991 291.563 102.744C291.966 102.494 292.408 102.369 292.888 102.369C293.254 102.369 293.56 102.432 293.804 102.557C294.051 102.679 294.25 102.832 294.401 103.017C294.554 103.199 294.671 103.378 294.75 103.554H294.806V100.273H296.617V109H294.827V107.952H294.75C294.665 108.134 294.544 108.314 294.388 108.493C294.235 108.669 294.034 108.815 293.787 108.932C293.543 109.048 293.244 109.107 292.892 109.107ZM293.468 107.662C293.76 107.662 294.007 107.582 294.209 107.423C294.414 107.261 294.57 107.036 294.678 106.746C294.789 106.456 294.844 106.116 294.844 105.727C294.844 105.338 294.79 105 294.682 104.713C294.574 104.426 294.418 104.205 294.213 104.048C294.009 103.892 293.76 103.814 293.468 103.814C293.169 103.814 292.918 103.895 292.713 104.057C292.509 104.219 292.354 104.443 292.249 104.73C292.144 105.017 292.091 105.349 292.091 105.727C292.091 106.108 292.144 106.445 292.249 106.737C292.357 107.027 292.512 107.254 292.713 107.419C292.918 107.581 293.169 107.662 293.468 107.662ZM298.109 109V102.455H299.925V109H298.109ZM299.021 101.611C298.751 101.611 298.52 101.521 298.327 101.342C298.136 101.161 298.041 100.943 298.041 100.69C298.041 100.44 298.136 100.226 298.327 100.047C298.52 99.8651 298.751 99.7741 299.021 99.7741C299.291 99.7741 299.521 99.8651 299.711 100.047C299.905 100.226 300.001 100.44 300.001 100.69C300.001 100.943 299.905 101.161 299.711 101.342C299.521 101.521 299.291 101.611 299.021 101.611ZM306.825 104.321L305.163 104.423C305.134 104.281 305.073 104.153 304.98 104.04C304.886 103.923 304.762 103.831 304.609 103.763C304.458 103.692 304.278 103.656 304.068 103.656C303.786 103.656 303.549 103.716 303.356 103.835C303.163 103.952 303.066 104.108 303.066 104.304C303.066 104.46 303.129 104.592 303.254 104.7C303.379 104.808 303.593 104.895 303.897 104.96L305.082 105.199C305.718 105.33 306.193 105.54 306.505 105.83C306.818 106.119 306.974 106.5 306.974 106.972C306.974 107.401 306.847 107.777 306.595 108.101C306.345 108.425 306.001 108.678 305.563 108.859C305.129 109.038 304.627 109.128 304.059 109.128C303.193 109.128 302.502 108.947 301.988 108.587C301.477 108.223 301.177 107.729 301.089 107.104L302.874 107.01C302.928 107.274 303.059 107.476 303.267 107.615C303.474 107.751 303.74 107.82 304.063 107.82C304.382 107.82 304.637 107.759 304.83 107.636C305.026 107.511 305.126 107.351 305.129 107.155C305.126 106.99 305.056 106.855 304.92 106.75C304.784 106.642 304.573 106.56 304.289 106.503L303.156 106.277C302.517 106.149 302.041 105.928 301.728 105.612C301.419 105.297 301.264 104.895 301.264 104.406C301.264 103.986 301.377 103.624 301.605 103.32C301.835 103.016 302.157 102.781 302.572 102.616C302.99 102.452 303.478 102.369 304.038 102.369C304.865 102.369 305.515 102.544 305.99 102.893C306.467 103.243 306.745 103.719 306.825 104.321ZM309.932 100.273V109H308.117V100.273H309.932ZM311.387 109V102.455H313.202V109H311.387ZM312.298 101.611C312.029 101.611 311.797 101.521 311.604 101.342C311.414 101.161 311.318 100.943 311.318 100.69C311.318 100.44 311.414 100.226 311.604 100.047C311.797 99.8651 312.029 99.7741 312.298 99.7741C312.568 99.7741 312.798 99.8651 312.989 100.047C313.182 100.226 313.279 100.44 313.279 100.69C313.279 100.943 313.182 101.161 312.989 101.342C312.798 101.521 312.568 101.611 312.298 101.611ZM316.301 107.116L316.305 104.939H316.569L318.666 102.455H320.75L317.933 105.744H317.503L316.301 107.116ZM314.656 109V100.273H316.471V109H314.656ZM318.747 109L316.821 106.149L318.031 104.866L320.873 109H318.747ZM324.354 109.128C323.681 109.128 323.101 108.991 322.615 108.719C322.132 108.443 321.76 108.054 321.499 107.551C321.237 107.045 321.107 106.447 321.107 105.757C321.107 105.084 321.237 104.493 321.499 103.984C321.76 103.476 322.128 103.08 322.602 102.795C323.08 102.511 323.639 102.369 324.281 102.369C324.713 102.369 325.115 102.439 325.487 102.578C325.862 102.714 326.189 102.92 326.468 103.196C326.749 103.472 326.968 103.818 327.124 104.236C327.28 104.651 327.358 105.136 327.358 105.693V106.192H321.831V105.067H325.649C325.649 104.805 325.593 104.574 325.479 104.372C325.365 104.17 325.208 104.013 325.006 103.899C324.807 103.783 324.575 103.724 324.311 103.724C324.036 103.724 323.791 103.788 323.578 103.916C323.368 104.041 323.203 104.21 323.084 104.423C322.965 104.634 322.904 104.868 322.901 105.126V106.196C322.901 106.52 322.96 106.8 323.08 107.036C323.202 107.271 323.374 107.453 323.595 107.581C323.817 107.709 324.08 107.773 324.384 107.773C324.585 107.773 324.77 107.744 324.938 107.688C325.105 107.631 325.249 107.545 325.368 107.432C325.487 107.318 325.578 107.179 325.641 107.014L327.32 107.125C327.235 107.528 327.06 107.881 326.796 108.182C326.534 108.48 326.196 108.713 325.781 108.881C325.369 109.045 324.894 109.128 324.354 109.128ZM258.077 115.273V124H256.262V115.273H258.077ZM261.398 124.124C260.98 124.124 260.608 124.051 260.281 123.906C259.954 123.759 259.696 123.541 259.506 123.254C259.318 122.964 259.224 122.604 259.224 122.172C259.224 121.808 259.291 121.503 259.425 121.256C259.558 121.009 259.74 120.81 259.97 120.659C260.2 120.509 260.461 120.395 260.754 120.318C261.05 120.241 261.359 120.188 261.683 120.156C262.064 120.116 262.371 120.08 262.604 120.045C262.836 120.009 263.006 119.955 263.111 119.884C263.216 119.812 263.268 119.707 263.268 119.568V119.543C263.268 119.273 263.183 119.064 263.013 118.916C262.845 118.768 262.606 118.695 262.297 118.695C261.97 118.695 261.71 118.767 261.517 118.912C261.324 119.054 261.196 119.233 261.133 119.449L259.454 119.312C259.54 118.915 259.707 118.571 259.957 118.281C260.207 117.989 260.53 117.764 260.925 117.608C261.322 117.449 261.782 117.369 262.305 117.369C262.669 117.369 263.017 117.412 263.349 117.497C263.684 117.582 263.981 117.714 264.24 117.893C264.501 118.072 264.707 118.303 264.858 118.584C265.008 118.862 265.084 119.196 265.084 119.585V124H263.362V123.092H263.311C263.206 123.297 263.065 123.477 262.889 123.634C262.713 123.787 262.501 123.908 262.254 123.996C262.007 124.081 261.721 124.124 261.398 124.124ZM261.917 122.871C262.184 122.871 262.42 122.818 262.625 122.713C262.829 122.605 262.99 122.46 263.106 122.278C263.223 122.097 263.281 121.891 263.281 121.661V120.966C263.224 121.003 263.146 121.037 263.047 121.068C262.95 121.097 262.841 121.124 262.719 121.149C262.596 121.172 262.474 121.193 262.352 121.213C262.23 121.23 262.119 121.246 262.02 121.26C261.807 121.291 261.621 121.341 261.461 121.409C261.302 121.477 261.179 121.57 261.091 121.686C261.003 121.8 260.959 121.942 260.959 122.112C260.959 122.359 261.048 122.548 261.227 122.679C261.409 122.807 261.639 122.871 261.917 122.871ZM268.307 120.216V124H266.492V117.455H268.222V118.609H268.299C268.444 118.229 268.687 117.928 269.028 117.706C269.368 117.482 269.782 117.369 270.268 117.369C270.722 117.369 271.118 117.469 271.456 117.668C271.795 117.866 272.057 118.151 272.245 118.52C272.432 118.886 272.526 119.324 272.526 119.832V124H270.711V120.156C270.714 119.756 270.611 119.443 270.404 119.219C270.197 118.991 269.911 118.878 269.547 118.878C269.303 118.878 269.087 118.93 268.9 119.036C268.715 119.141 268.57 119.294 268.465 119.496C268.363 119.695 268.31 119.935 268.307 120.216ZM276.369 124.107C275.872 124.107 275.421 123.979 275.018 123.723C274.617 123.464 274.299 123.085 274.063 122.585C273.83 122.082 273.714 121.466 273.714 120.736C273.714 119.986 273.835 119.362 274.076 118.865C274.318 118.365 274.639 117.991 275.039 117.744C275.443 117.494 275.884 117.369 276.365 117.369C276.731 117.369 277.036 117.432 277.281 117.557C277.528 117.679 277.727 117.832 277.877 118.017C278.031 118.199 278.147 118.378 278.227 118.554H278.282V115.273H280.093V124H278.303V122.952H278.227C278.142 123.134 278.021 123.314 277.865 123.493C277.711 123.669 277.511 123.815 277.264 123.932C277.019 124.048 276.721 124.107 276.369 124.107ZM276.944 122.662C277.237 122.662 277.484 122.582 277.686 122.423C277.89 122.261 278.046 122.036 278.154 121.746C278.265 121.456 278.32 121.116 278.32 120.727C278.32 120.338 278.267 120 278.159 119.713C278.051 119.426 277.894 119.205 277.69 119.048C277.485 118.892 277.237 118.814 276.944 118.814C276.646 118.814 276.394 118.895 276.19 119.057C275.985 119.219 275.83 119.443 275.725 119.73C275.62 120.017 275.568 120.349 275.568 120.727C275.568 121.108 275.62 121.445 275.725 121.737C275.833 122.027 275.988 122.254 276.19 122.419C276.394 122.581 276.646 122.662 276.944 122.662ZM283.401 115.273V124H281.586V115.273H283.401ZM287.813 124.128C287.151 124.128 286.578 123.987 286.095 123.706C285.615 123.422 285.244 123.027 284.983 122.521C284.722 122.013 284.591 121.423 284.591 120.753C284.591 120.077 284.722 119.486 284.983 118.98C285.244 118.472 285.615 118.077 286.095 117.795C286.578 117.511 287.151 117.369 287.813 117.369C288.475 117.369 289.046 117.511 289.526 117.795C290.009 118.077 290.381 118.472 290.642 118.98C290.904 119.486 291.034 120.077 291.034 120.753C291.034 121.423 290.904 122.013 290.642 122.521C290.381 123.027 290.009 123.422 289.526 123.706C289.046 123.987 288.475 124.128 287.813 124.128ZM287.821 122.722C288.122 122.722 288.374 122.636 288.575 122.466C288.777 122.293 288.929 122.057 289.031 121.759C289.137 121.46 289.189 121.121 289.189 120.74C289.189 120.359 289.137 120.02 289.031 119.722C288.929 119.423 288.777 119.187 288.575 119.014C288.374 118.841 288.122 118.754 287.821 118.754C287.517 118.754 287.262 118.841 287.054 119.014C286.85 119.187 286.695 119.423 286.59 119.722C286.487 120.02 286.436 120.359 286.436 120.74C286.436 121.121 286.487 121.46 286.59 121.759C286.695 122.057 286.85 122.293 287.054 122.466C287.262 122.636 287.517 122.722 287.821 122.722ZM292.215 124V117.455H293.975V118.597H294.043C294.162 118.19 294.362 117.884 294.644 117.676C294.925 117.466 295.249 117.361 295.615 117.361C295.706 117.361 295.804 117.366 295.909 117.378C296.014 117.389 296.107 117.405 296.186 117.425V119.036C296.101 119.01 295.983 118.987 295.833 118.967C295.682 118.947 295.544 118.938 295.419 118.938C295.152 118.938 294.914 118.996 294.703 119.112C294.496 119.226 294.331 119.385 294.209 119.589C294.09 119.794 294.03 120.03 294.03 120.297V124H292.215ZM299.232 124.107C298.735 124.107 298.285 123.979 297.881 123.723C297.481 123.464 297.162 123.085 296.927 122.585C296.694 122.082 296.577 121.466 296.577 120.736C296.577 119.986 296.698 119.362 296.939 118.865C297.181 118.365 297.502 117.991 297.903 117.744C298.306 117.494 298.748 117.369 299.228 117.369C299.594 117.369 299.9 117.432 300.144 117.557C300.391 117.679 300.59 117.832 300.741 118.017C300.894 118.199 301.01 118.378 301.09 118.554H301.145V115.273H302.956V124H301.167V122.952H301.09C301.005 123.134 300.884 123.314 300.728 123.493C300.574 123.669 300.374 123.815 300.127 123.932C299.883 124.048 299.584 124.107 299.232 124.107ZM299.807 122.662C300.1 122.662 300.347 122.582 300.549 122.423C300.753 122.261 300.91 122.036 301.018 121.746C301.128 121.456 301.184 121.116 301.184 120.727C301.184 120.338 301.13 120 301.022 119.713C300.914 119.426 300.758 119.205 300.553 119.048C300.349 118.892 300.1 118.814 299.807 118.814C299.509 118.814 299.258 118.895 299.053 119.057C298.849 119.219 298.694 119.443 298.589 119.73C298.483 120.017 298.431 120.349 298.431 120.727C298.431 121.108 298.483 121.445 298.589 121.737C298.697 122.027 298.851 122.254 299.053 122.419C299.258 122.581 299.509 122.662 299.807 122.662ZM309.895 119.321L308.233 119.423C308.205 119.281 308.144 119.153 308.05 119.04C307.956 118.923 307.833 118.831 307.679 118.763C307.529 118.692 307.348 118.656 307.138 118.656C306.857 118.656 306.619 118.716 306.426 118.835C306.233 118.952 306.137 119.108 306.137 119.304C306.137 119.46 306.199 119.592 306.324 119.7C306.449 119.808 306.664 119.895 306.968 119.96L308.152 120.199C308.789 120.33 309.263 120.54 309.575 120.83C309.888 121.119 310.044 121.5 310.044 121.972C310.044 122.401 309.918 122.777 309.665 123.101C309.415 123.425 309.071 123.678 308.634 123.859C308.199 124.038 307.698 124.128 307.129 124.128C306.263 124.128 305.573 123.947 305.058 123.587C304.547 123.223 304.247 122.729 304.159 122.104L305.945 122.01C305.999 122.274 306.129 122.476 306.337 122.615C306.544 122.751 306.81 122.82 307.134 122.82C307.452 122.82 307.708 122.759 307.901 122.636C308.097 122.511 308.196 122.351 308.199 122.155C308.196 121.99 308.127 121.855 307.99 121.75C307.854 121.642 307.644 121.56 307.36 121.503L306.226 121.277C305.587 121.149 305.111 120.928 304.798 120.612C304.489 120.297 304.334 119.895 304.334 119.406C304.334 118.986 304.448 118.624 304.675 118.32C304.905 118.016 305.227 117.781 305.642 117.616C306.06 117.452 306.548 117.369 307.108 117.369C307.935 117.369 308.585 117.544 309.06 117.893C309.537 118.243 309.816 118.719 309.895 119.321Z" fill="#040000"/>
<path d="M168.692 30.151C172.71 30.1284 173.804 36.3743 176.192 45.151L177.692 41.151C184.047 41.7618 185.436 42.7856 186.192 45.151C184.214 51.2449 178.564 53.4374 162.192 55.651C151.215 54.8325 139.513 53.1655 138.192 45.151C139.653 41.3406 141.925 40.7946 147.192 41.151L148.192 45.151C150.758 36.9654 151.635 28.7813 155.692 30.151C158.464 30.4478 159.855 30.9524 162.192 32.151C165.788 30.2901 167.329 29.8062 168.692 30.151Z" fill="#0B0000" stroke="black"/>
<path d="M147.192 59.651L145.692 56.651C152.489 55.4849 156.098 55.7209 162.192 57.651C168.445 55.2429 172.065 55.0952 178.692 56.651V58.651L177.692 59.651C177.414 62.2334 176.92 63.5206 175.692 65.651C172.203 67.5633 169.991 67.4622 165.692 65.651L163.192 59.651L162.192 58.651L161.192 59.651L158.692 65.651C155.175 67.4271 153.115 67.611 149.192 65.651C147.485 64.0714 147.219 62.6159 147.192 59.651Z" fill="#1A0303" stroke="black"/>
<path d="M162.192 79.0045C153.182 76.0241 149.423 72.8816 149.192 67.0045C149.635 66.9466 142.645 67.4452 140.192 68.5045C137.74 69.5638 137.192 72.0045 137.192 72.0045C136.92 79.4868 136.952 83.2434 137.192 89.5045C140.973 92.2551 146.558 93.1087 162.192 93.5045C177.61 92.6971 185.132 92.0995 186.692 89.5045C187.384 83.6983 187.823 80.52 186.692 72.0045C185.44 68.7604 182.998 67.6793 175.692 67.0045C173.176 71.5415 175.61 73.8769 162.192 79.0045Z" fill="black" stroke="black"/>
<path d="M154.85 102.783C154.816 102.439 154.67 102.172 154.411 101.982C154.153 101.791 153.802 101.696 153.359 101.696C153.058 101.696 152.803 101.739 152.596 101.824C152.389 101.906 152.23 102.021 152.119 102.169C152.011 102.317 151.957 102.484 151.957 102.672C151.951 102.828 151.984 102.964 152.055 103.081C152.129 103.197 152.23 103.298 152.357 103.384C152.485 103.466 152.633 103.538 152.801 103.601C152.968 103.661 153.147 103.712 153.338 103.754L154.122 103.942C154.502 104.027 154.852 104.141 155.17 104.283C155.488 104.425 155.764 104.599 155.997 104.807C156.23 105.014 156.41 105.259 156.538 105.54C156.669 105.821 156.735 106.143 156.738 106.507C156.735 107.041 156.599 107.504 156.329 107.896C156.062 108.286 155.676 108.588 155.17 108.804C154.667 109.017 154.061 109.124 153.35 109.124C152.646 109.124 152.032 109.016 151.509 108.8C150.99 108.584 150.583 108.264 150.291 107.841C150.001 107.415 149.849 106.888 149.835 106.26H151.62C151.64 106.553 151.724 106.797 151.872 106.993C152.022 107.186 152.222 107.332 152.472 107.432C152.725 107.528 153.011 107.577 153.329 107.577C153.642 107.577 153.913 107.531 154.143 107.44C154.376 107.349 154.556 107.223 154.684 107.061C154.812 106.899 154.876 106.713 154.876 106.503C154.876 106.307 154.818 106.142 154.701 106.009C154.588 105.875 154.42 105.761 154.198 105.668C153.98 105.574 153.711 105.489 153.393 105.412L152.443 105.173C151.707 104.994 151.126 104.714 150.7 104.334C150.274 103.953 150.062 103.44 150.065 102.795C150.062 102.267 150.203 101.805 150.487 101.411C150.774 101.016 151.167 100.707 151.667 100.486C152.167 100.264 152.735 100.153 153.372 100.153C154.019 100.153 154.585 100.264 155.068 100.486C155.553 100.707 155.931 101.016 156.201 101.411C156.471 101.805 156.61 102.263 156.619 102.783H154.85ZM161.427 102.455V103.818H157.485V102.455H161.427ZM158.38 100.886H160.195V106.989C160.195 107.156 160.221 107.287 160.272 107.381C160.323 107.472 160.394 107.536 160.485 107.572C160.579 107.609 160.687 107.628 160.809 107.628C160.894 107.628 160.979 107.621 161.064 107.607C161.15 107.589 161.215 107.577 161.26 107.568L161.546 108.919C161.455 108.947 161.327 108.98 161.162 109.017C160.998 109.057 160.797 109.081 160.562 109.089C160.124 109.107 159.741 109.048 159.411 108.915C159.084 108.781 158.83 108.574 158.648 108.293C158.466 108.011 158.377 107.656 158.38 107.227V100.886ZM164.476 109.124C164.058 109.124 163.686 109.051 163.359 108.906C163.032 108.759 162.774 108.541 162.584 108.254C162.396 107.964 162.302 107.604 162.302 107.172C162.302 106.808 162.369 106.503 162.503 106.256C162.636 106.009 162.818 105.81 163.048 105.659C163.278 105.509 163.54 105.395 163.832 105.318C164.128 105.241 164.437 105.188 164.761 105.156C165.142 105.116 165.449 105.08 165.682 105.045C165.915 105.009 166.084 104.955 166.189 104.884C166.294 104.812 166.346 104.707 166.346 104.568V104.543C166.346 104.273 166.261 104.064 166.091 103.916C165.923 103.768 165.684 103.695 165.375 103.695C165.048 103.695 164.788 103.767 164.595 103.912C164.402 104.054 164.274 104.233 164.211 104.449L162.532 104.312C162.618 103.915 162.785 103.571 163.035 103.281C163.285 102.989 163.608 102.764 164.003 102.608C164.4 102.449 164.861 102.369 165.383 102.369C165.747 102.369 166.095 102.412 166.427 102.497C166.763 102.582 167.059 102.714 167.318 102.893C167.579 103.072 167.785 103.303 167.936 103.584C168.086 103.862 168.162 104.196 168.162 104.585V109H166.44V108.092H166.389C166.284 108.297 166.143 108.477 165.967 108.634C165.791 108.787 165.579 108.908 165.332 108.996C165.085 109.081 164.8 109.124 164.476 109.124ZM164.996 107.871C165.263 107.871 165.498 107.818 165.703 107.713C165.907 107.605 166.068 107.46 166.184 107.278C166.301 107.097 166.359 106.891 166.359 106.661V105.966C166.302 106.003 166.224 106.037 166.125 106.068C166.028 106.097 165.919 106.124 165.797 106.149C165.675 106.172 165.552 106.193 165.43 106.213C165.308 106.23 165.197 106.246 165.098 106.26C164.885 106.291 164.699 106.341 164.54 106.409C164.381 106.477 164.257 106.57 164.169 106.686C164.081 106.8 164.037 106.942 164.037 107.112C164.037 107.359 164.126 107.548 164.305 107.679C164.487 107.807 164.717 107.871 164.996 107.871ZM170.456 111.455C170.226 111.455 170.01 111.436 169.809 111.399C169.61 111.365 169.445 111.321 169.314 111.267L169.724 109.912C169.937 109.977 170.128 110.013 170.299 110.018C170.472 110.024 170.621 109.984 170.746 109.899C170.874 109.814 170.978 109.669 171.057 109.464L171.164 109.188L168.816 102.455H170.725L172.08 107.261H172.148L173.516 102.455H175.438L172.894 109.707C172.772 110.06 172.606 110.366 172.395 110.628C172.188 110.892 171.925 111.095 171.607 111.237C171.289 111.382 170.905 111.455 170.456 111.455ZM130.814 124.124C130.396 124.124 130.024 124.051 129.697 123.906C129.37 123.759 129.112 123.541 128.922 123.254C128.734 122.964 128.64 122.604 128.64 122.172C128.64 121.808 128.707 121.503 128.841 121.256C128.974 121.009 129.156 120.81 129.386 120.659C129.616 120.509 129.877 120.395 130.17 120.318C130.466 120.241 130.775 120.188 131.099 120.156C131.48 120.116 131.787 120.08 132.02 120.045C132.252 120.009 132.422 119.955 132.527 119.884C132.632 119.812 132.684 119.707 132.684 119.568V119.543C132.684 119.273 132.599 119.064 132.429 118.916C132.261 118.768 132.022 118.695 131.713 118.695C131.386 118.695 131.126 118.767 130.933 118.912C130.74 119.054 130.612 119.233 130.549 119.449L128.87 119.312C128.956 118.915 129.123 118.571 129.373 118.281C129.623 117.989 129.946 117.764 130.341 117.608C130.738 117.449 131.199 117.369 131.721 117.369C132.085 117.369 132.433 117.412 132.765 117.497C133.1 117.582 133.397 117.714 133.656 117.893C133.917 118.072 134.123 118.303 134.274 118.584C134.424 118.862 134.5 119.196 134.5 119.585V124H132.778V123.092H132.727C132.622 123.297 132.481 123.477 132.305 123.634C132.129 123.787 131.917 123.908 131.67 123.996C131.423 124.081 131.137 124.124 130.814 124.124ZM131.333 122.871C131.6 122.871 131.836 122.818 132.041 122.713C132.245 122.605 132.406 122.46 132.522 122.278C132.639 122.097 132.697 121.891 132.697 121.661V120.966C132.64 121.003 132.562 121.037 132.463 121.068C132.366 121.097 132.257 121.124 132.135 121.149C132.012 121.172 131.89 121.193 131.768 121.213C131.646 121.23 131.535 121.246 131.436 121.26C131.223 121.291 131.037 121.341 130.877 121.409C130.718 121.477 130.595 121.57 130.507 121.686C130.419 121.8 130.375 121.942 130.375 122.112C130.375 122.359 130.464 122.548 130.643 122.679C130.825 122.807 131.055 122.871 131.333 122.871ZM137.723 120.216V124H135.908V117.455H137.638V118.609H137.715C137.86 118.229 138.103 117.928 138.444 117.706C138.784 117.482 139.198 117.369 139.684 117.369C140.138 117.369 140.534 117.469 140.873 117.668C141.211 117.866 141.473 118.151 141.661 118.52C141.848 118.886 141.942 119.324 141.942 119.832V124H140.127V120.156C140.13 119.756 140.027 119.443 139.82 119.219C139.613 118.991 139.327 118.878 138.963 118.878C138.719 118.878 138.503 118.93 138.316 119.036C138.131 119.141 137.986 119.294 137.881 119.496C137.779 119.695 137.726 119.935 137.723 120.216ZM146.33 124.128C145.668 124.128 145.096 123.987 144.613 123.706C144.133 123.422 143.762 123.027 143.501 122.521C143.239 122.013 143.109 121.423 143.109 120.753C143.109 120.077 143.239 119.486 143.501 118.98C143.762 118.472 144.133 118.077 144.613 117.795C145.096 117.511 145.668 117.369 146.33 117.369C146.992 117.369 147.563 117.511 148.043 117.795C148.526 118.077 148.898 118.472 149.16 118.98C149.421 119.486 149.552 120.077 149.552 120.753C149.552 121.423 149.421 122.013 149.16 122.521C148.898 123.027 148.526 123.422 148.043 123.706C147.563 123.987 146.992 124.128 146.33 124.128ZM146.339 122.722C146.64 122.722 146.891 122.636 147.093 122.466C147.295 122.293 147.447 122.057 147.549 121.759C147.654 121.46 147.707 121.121 147.707 120.74C147.707 120.359 147.654 120.02 147.549 119.722C147.447 119.423 147.295 119.187 147.093 119.014C146.891 118.841 146.64 118.754 146.339 118.754C146.035 118.754 145.779 118.841 145.572 119.014C145.367 119.187 145.212 119.423 145.107 119.722C145.005 120.02 144.954 120.359 144.954 120.74C144.954 121.121 145.005 121.46 145.107 121.759C145.212 122.057 145.367 122.293 145.572 122.466C145.779 122.636 146.035 122.722 146.339 122.722ZM152.548 120.216V124H150.732V117.455H152.462V118.609H152.539C152.684 118.229 152.927 117.928 153.268 117.706C153.609 117.482 154.022 117.369 154.508 117.369C154.962 117.369 155.359 117.469 155.697 117.668C156.035 117.866 156.298 118.151 156.485 118.52C156.673 118.886 156.766 119.324 156.766 119.832V124H154.951V120.156C154.954 119.756 154.852 119.443 154.644 119.219C154.437 118.991 154.151 118.878 153.788 118.878C153.543 118.878 153.327 118.93 153.14 119.036C152.955 119.141 152.81 119.294 152.705 119.496C152.603 119.695 152.55 119.935 152.548 120.216ZM159.083 126.455C158.853 126.455 158.637 126.436 158.436 126.399C158.237 126.365 158.072 126.321 157.941 126.267L158.35 124.912C158.564 124.977 158.755 125.013 158.926 125.018C159.099 125.024 159.248 124.984 159.373 124.899C159.501 124.814 159.605 124.669 159.684 124.464L159.791 124.188L157.443 117.455H159.352L160.707 122.261H160.775L162.143 117.455H164.065L161.521 124.707C161.399 125.06 161.233 125.366 161.022 125.628C160.815 125.892 160.552 126.095 160.234 126.237C159.916 126.382 159.532 126.455 159.083 126.455ZM164.994 124V117.455H166.724V118.609H166.801C166.937 118.226 167.164 117.923 167.483 117.702C167.801 117.48 168.181 117.369 168.625 117.369C169.074 117.369 169.456 117.482 169.771 117.706C170.086 117.928 170.297 118.229 170.402 118.609H170.47C170.603 118.234 170.845 117.935 171.194 117.71C171.547 117.483 171.963 117.369 172.443 117.369C173.054 117.369 173.549 117.564 173.93 117.953C174.314 118.339 174.505 118.888 174.505 119.598V124H172.694V119.956C172.694 119.592 172.598 119.32 172.404 119.138C172.211 118.956 171.97 118.865 171.68 118.865C171.35 118.865 171.093 118.97 170.909 119.18C170.724 119.388 170.632 119.662 170.632 120.003V124H168.872V119.918C168.872 119.597 168.779 119.341 168.595 119.151C168.413 118.96 168.173 118.865 167.875 118.865C167.673 118.865 167.491 118.916 167.329 119.018C167.17 119.118 167.044 119.259 166.95 119.44C166.856 119.619 166.809 119.83 166.809 120.071V124H164.994ZM178.897 124.128C178.235 124.128 177.662 123.987 177.179 123.706C176.699 123.422 176.328 123.027 176.067 122.521C175.806 122.013 175.675 121.423 175.675 120.753C175.675 120.077 175.806 119.486 176.067 118.98C176.328 118.472 176.699 118.077 177.179 117.795C177.662 117.511 178.235 117.369 178.897 117.369C179.559 117.369 180.13 117.511 180.61 117.795C181.093 118.077 181.465 118.472 181.726 118.98C181.988 119.486 182.118 120.077 182.118 120.753C182.118 121.423 181.988 122.013 181.726 122.521C181.465 123.027 181.093 123.422 180.61 123.706C180.13 123.987 179.559 124.128 178.897 124.128ZM178.905 122.722C179.206 122.722 179.458 122.636 179.659 122.466C179.861 122.293 180.013 122.057 180.115 121.759C180.221 121.46 180.273 121.121 180.273 120.74C180.273 120.359 180.221 120.02 180.115 119.722C180.013 119.423 179.861 119.187 179.659 119.014C179.458 118.841 179.206 118.754 178.905 118.754C178.601 118.754 178.346 118.841 178.138 119.014C177.934 119.187 177.779 119.423 177.674 119.722C177.571 120.02 177.52 120.359 177.52 120.74C177.52 121.121 177.571 121.46 177.674 121.759C177.779 122.057 177.934 122.293 178.138 122.466C178.346 122.636 178.601 122.722 178.905 122.722ZM187.496 121.213V117.455H189.311V124H187.569V122.811H187.5C187.353 123.195 187.107 123.503 186.763 123.736C186.422 123.969 186.006 124.085 185.515 124.085C185.077 124.085 184.692 123.986 184.36 123.787C184.027 123.588 183.767 123.305 183.58 122.939C183.395 122.572 183.301 122.134 183.299 121.622V117.455H185.114V121.298C185.117 121.685 185.221 121.99 185.425 122.214C185.63 122.439 185.904 122.551 186.248 122.551C186.466 122.551 186.671 122.501 186.861 122.402C187.051 122.3 187.205 122.149 187.321 121.95C187.441 121.751 187.499 121.506 187.496 121.213ZM196.21 119.321L194.548 119.423C194.519 119.281 194.458 119.153 194.364 119.04C194.271 118.923 194.147 118.831 193.994 118.763C193.843 118.692 193.663 118.656 193.452 118.656C193.171 118.656 192.934 118.716 192.741 118.835C192.548 118.952 192.451 119.108 192.451 119.304C192.451 119.46 192.513 119.592 192.638 119.7C192.763 119.808 192.978 119.895 193.282 119.96L194.467 120.199C195.103 120.33 195.577 120.54 195.89 120.83C196.202 121.119 196.359 121.5 196.359 121.972C196.359 122.401 196.232 122.777 195.979 123.101C195.729 123.425 195.386 123.678 194.948 123.859C194.513 124.038 194.012 124.128 193.444 124.128C192.577 124.128 191.887 123.947 191.373 123.587C190.862 123.223 190.562 122.729 190.474 122.104L192.259 122.01C192.313 122.274 192.444 122.476 192.651 122.615C192.859 122.751 193.124 122.82 193.448 122.82C193.766 122.82 194.022 122.759 194.215 122.636C194.411 122.511 194.511 122.351 194.513 122.155C194.511 121.99 194.441 121.855 194.305 121.75C194.168 121.642 193.958 121.56 193.674 121.503L192.54 121.277C191.901 121.149 191.425 120.928 191.113 120.612C190.803 120.297 190.648 119.895 190.648 119.406C190.648 118.986 190.762 118.624 190.989 118.32C191.219 118.016 191.542 117.781 191.957 117.616C192.374 117.452 192.863 117.369 193.423 117.369C194.249 117.369 194.9 117.544 195.374 117.893C195.852 118.243 196.13 118.719 196.21 119.321ZM128.51 139L126.729 132.455H128.565L129.579 136.852H129.639L130.696 132.455H132.498L133.572 136.827H133.628L134.625 132.455H136.457L134.68 139H132.758L131.633 134.884H131.552L130.427 139H128.51ZM139.241 135.216V139H137.426V130.273H139.19V133.609H139.267C139.414 133.223 139.653 132.92 139.982 132.702C140.312 132.48 140.725 132.369 141.222 132.369C141.677 132.369 142.073 132.469 142.411 132.668C142.752 132.864 143.017 133.146 143.204 133.516C143.394 133.882 143.488 134.321 143.485 134.832V139H141.67V135.156C141.673 134.753 141.57 134.439 141.363 134.214C141.159 133.99 140.872 133.878 140.502 133.878C140.255 133.878 140.036 133.93 139.846 134.036C139.659 134.141 139.511 134.294 139.403 134.496C139.298 134.695 139.244 134.935 139.241 135.216ZM144.914 139V132.455H146.729V139H144.914ZM145.826 131.611C145.556 131.611 145.324 131.521 145.131 131.342C144.941 131.161 144.846 130.943 144.846 130.69C144.846 130.44 144.941 130.226 145.131 130.047C145.324 129.865 145.556 129.774 145.826 129.774C146.096 129.774 146.326 129.865 146.516 130.047C146.709 130.226 146.806 130.44 146.806 130.69C146.806 130.943 146.709 131.161 146.516 131.342C146.326 131.521 146.096 131.611 145.826 131.611ZM149.999 130.273V139H148.183V130.273H149.999ZM154.436 139.128C153.763 139.128 153.183 138.991 152.697 138.719C152.214 138.443 151.842 138.054 151.581 137.551C151.319 137.045 151.189 136.447 151.189 135.757C151.189 135.084 151.319 134.493 151.581 133.984C151.842 133.476 152.21 133.08 152.684 132.795C153.162 132.511 153.721 132.369 154.363 132.369C154.795 132.369 155.197 132.439 155.569 132.578C155.944 132.714 156.271 132.92 156.55 133.196C156.831 133.472 157.05 133.818 157.206 134.236C157.362 134.651 157.44 135.136 157.44 135.693V136.192H151.913V135.067H155.731C155.731 134.805 155.675 134.574 155.561 134.372C155.447 134.17 155.29 134.013 155.088 133.899C154.889 133.783 154.657 133.724 154.393 133.724C154.118 133.724 153.873 133.788 153.66 133.916C153.45 134.041 153.285 134.21 153.166 134.423C153.047 134.634 152.986 134.868 152.983 135.126V136.196C152.983 136.52 153.042 136.8 153.162 137.036C153.284 137.271 153.456 137.453 153.677 137.581C153.899 137.709 154.162 137.773 154.466 137.773C154.667 137.773 154.852 137.744 155.02 137.688C155.187 137.631 155.331 137.545 155.45 137.432C155.569 137.318 155.66 137.179 155.723 137.014L157.402 137.125C157.317 137.528 157.142 137.881 156.878 138.182C156.616 138.48 156.278 138.713 155.863 138.881C155.452 139.045 154.976 139.128 154.436 139.128ZM161.436 139V130.273H164.879C165.539 130.273 166.101 130.391 166.567 130.626C167.036 130.859 167.392 131.19 167.637 131.619C167.884 132.045 168.007 132.547 168.007 133.124C168.007 133.703 167.882 134.202 167.632 134.619C167.382 135.034 167.02 135.352 166.546 135.574C166.074 135.795 165.503 135.906 164.833 135.906H162.527V134.423H164.534C164.887 134.423 165.179 134.375 165.412 134.278C165.645 134.182 165.818 134.037 165.932 133.844C166.048 133.651 166.107 133.411 166.107 133.124C166.107 132.834 166.048 132.589 165.932 132.391C165.818 132.192 165.644 132.041 165.408 131.939C165.175 131.834 164.881 131.781 164.526 131.781H163.281V139H161.436ZM166.149 135.028L168.318 139H166.281L164.159 135.028H166.149ZM171.144 139.124C170.726 139.124 170.354 139.051 170.027 138.906C169.7 138.759 169.442 138.541 169.252 138.254C169.064 137.964 168.97 137.604 168.97 137.172C168.97 136.808 169.037 136.503 169.171 136.256C169.304 136.009 169.486 135.81 169.716 135.659C169.946 135.509 170.208 135.395 170.5 135.318C170.796 135.241 171.105 135.188 171.429 135.156C171.81 135.116 172.117 135.08 172.35 135.045C172.583 135.009 172.752 134.955 172.857 134.884C172.962 134.812 173.014 134.707 173.014 134.568V134.543C173.014 134.273 172.929 134.064 172.759 133.916C172.591 133.768 172.352 133.695 172.043 133.695C171.716 133.695 171.456 133.767 171.263 133.912C171.07 134.054 170.942 134.233 170.879 134.449L169.2 134.312C169.286 133.915 169.453 133.571 169.703 133.281C169.953 132.989 170.276 132.764 170.671 132.608C171.068 132.449 171.529 132.369 172.051 132.369C172.415 132.369 172.763 132.412 173.095 132.497C173.431 132.582 173.727 132.714 173.986 132.893C174.247 133.072 174.453 133.303 174.604 133.584C174.754 133.862 174.83 134.196 174.83 134.585V139H173.108V138.092H173.057C172.952 138.297 172.811 138.477 172.635 138.634C172.459 138.787 172.247 138.908 172 138.996C171.753 139.081 171.468 139.124 171.144 139.124ZM171.664 137.871C171.931 137.871 172.166 137.818 172.371 137.713C172.575 137.605 172.736 137.46 172.852 137.278C172.969 137.097 173.027 136.891 173.027 136.661V135.966C172.97 136.003 172.892 136.037 172.793 136.068C172.696 136.097 172.587 136.124 172.465 136.149C172.343 136.172 172.22 136.193 172.098 136.213C171.976 136.23 171.865 136.246 171.766 136.26C171.553 136.291 171.367 136.341 171.208 136.409C171.048 136.477 170.925 136.57 170.837 136.686C170.749 136.8 170.705 136.942 170.705 137.112C170.705 137.359 170.794 137.548 170.973 137.679C171.155 137.807 171.385 137.871 171.664 137.871ZM179.72 132.455V133.818H175.778V132.455H179.72ZM176.673 130.886H178.488V136.989C178.488 137.156 178.514 137.287 178.565 137.381C178.616 137.472 178.687 137.536 178.778 137.572C178.872 137.609 178.98 137.628 179.102 137.628C179.187 137.628 179.272 137.621 179.357 137.607C179.443 137.589 179.508 137.577 179.553 137.568L179.839 138.919C179.748 138.947 179.62 138.98 179.455 139.017C179.291 139.057 179.09 139.081 178.855 139.089C178.417 139.107 178.034 139.048 177.704 138.915C177.377 138.781 177.123 138.574 176.941 138.293C176.759 138.011 176.67 137.656 176.673 137.227V130.886ZM180.902 139V132.455H182.718V139H180.902ZM181.814 131.611C181.544 131.611 181.313 131.521 181.119 131.342C180.929 131.161 180.834 130.943 180.834 130.69C180.834 130.44 180.929 130.226 181.119 130.047C181.313 129.865 181.544 129.774 181.814 129.774C182.084 129.774 182.314 129.865 182.504 130.047C182.698 130.226 182.794 130.44 182.794 130.69C182.794 130.943 182.698 131.161 182.504 131.342C182.314 131.521 182.084 131.611 181.814 131.611ZM185.987 135.216V139H184.172V132.455H185.902V133.609H185.979C186.123 133.229 186.366 132.928 186.707 132.706C187.048 132.482 187.461 132.369 187.947 132.369C188.402 132.369 188.798 132.469 189.136 132.668C189.474 132.866 189.737 133.151 189.925 133.52C190.112 133.886 190.206 134.324 190.206 134.832V139H188.39V135.156C188.393 134.756 188.291 134.443 188.084 134.219C187.876 133.991 187.591 133.878 187.227 133.878C186.983 133.878 186.767 133.93 186.579 134.036C186.395 134.141 186.25 134.294 186.145 134.496C186.042 134.695 185.99 134.935 185.987 135.216ZM194.585 141.591C193.997 141.591 193.493 141.51 193.073 141.348C192.655 141.189 192.323 140.972 192.075 140.696C191.828 140.42 191.668 140.111 191.594 139.767L193.273 139.541C193.324 139.672 193.405 139.794 193.516 139.908C193.627 140.021 193.773 140.112 193.955 140.18C194.139 140.251 194.364 140.287 194.628 140.287C195.023 140.287 195.348 140.19 195.604 139.997C195.862 139.807 195.992 139.487 195.992 139.038V137.841H195.915C195.835 138.023 195.716 138.195 195.557 138.357C195.398 138.518 195.193 138.651 194.943 138.753C194.693 138.855 194.395 138.906 194.048 138.906C193.557 138.906 193.11 138.793 192.706 138.565C192.306 138.335 191.986 137.984 191.747 137.513C191.512 137.038 191.394 136.439 191.394 135.714C191.394 134.973 191.514 134.354 191.756 133.857C191.997 133.359 192.318 132.987 192.719 132.74C193.122 132.493 193.564 132.369 194.044 132.369C194.411 132.369 194.718 132.432 194.965 132.557C195.212 132.679 195.411 132.832 195.561 133.017C195.715 133.199 195.833 133.378 195.915 133.554H195.983V132.455H197.786V139.064C197.786 139.621 197.649 140.087 197.377 140.462C197.104 140.837 196.726 141.118 196.243 141.305C195.763 141.496 195.21 141.591 194.585 141.591ZM194.624 137.543C194.916 137.543 195.164 137.47 195.365 137.325C195.57 137.178 195.726 136.967 195.834 136.695C195.945 136.419 196 136.089 196 135.706C196 135.322 195.946 134.99 195.838 134.709C195.73 134.425 195.574 134.205 195.369 134.048C195.165 133.892 194.916 133.814 194.624 133.814C194.325 133.814 194.074 133.895 193.869 134.057C193.665 134.216 193.51 134.437 193.405 134.722C193.3 135.006 193.247 135.334 193.247 135.706C193.247 136.084 193.3 136.411 193.405 136.686C193.513 136.959 193.668 137.17 193.869 137.321C194.074 137.469 194.325 137.543 194.624 137.543Z" fill="black"/>
<path d="M77.6667 62L79.7267 66.1733L84.3333 66.8467L81 70.0933L81.7867 74.68L77.6667 72.5133L73.5467 74.68L74.3333 70.0933L71 66.8467L75.6067 66.1733L77.6667 62Z" fill="#FFE641" stroke="#1E1E1E" stroke-width="1.6" stroke-linecap="round" stroke-linejoin="round"/>
<path d="M13.6667 62L15.7267 66.1733L20.3333 66.8467L17 70.0933L17.7867 74.68L13.6667 72.5133L9.54667 74.68L10.3333 70.0933L7 66.8467L11.6067 66.1733L13.6667 62Z" fill="#FFE641" stroke="#1E1E1E" stroke-width="1.6" stroke-linecap="round" stroke-linejoin="round"/>
<path d="M29.6667 62L31.7267 66.1733L36.3333 66.8467L33 70.0933L33.7867 74.68L29.6667 72.5133L25.5467 74.68L26.3333 70.0933L23 66.8467L27.6067 66.1733L29.6667 62Z" fill="#FFE641" stroke="#1E1E1E" stroke-width="1.6" stroke-linecap="round" stroke-linejoin="round"/>
<path d="M61.6667 62L63.7267 66.1733L68.3333 66.8467L65 70.0933L65.7867 74.68L61.6667 72.5133L57.5467 74.68L58.3333 70.0933L55 66.8467L59.6067 66.1733L61.6667 62Z" fill="#FFE641" stroke="#1E1E1E" stroke-width="1.6" stroke-linecap="round" stroke-linejoin="round"/>
<path d="M45.6667 62L47.7267 66.1733L52.3333 66.8467L49 70.0933L49.7867 74.68L45.6667 72.5133L41.5467 74.68L42.3333 70.0933L39 66.8467L43.6067 66.1733L45.6667 62Z" fill="#FFE641" stroke="#1E1E1E" stroke-width="1.6" stroke-linecap="round" stroke-linejoin="round"/>
<path d="M29.0756 108.68V99.9527H30.9208V107.159H34.6622V108.68H29.0756ZM38.833 108.808C38.1597 108.808 37.5802 108.671 37.0944 108.399C36.6114 108.123 36.2393 107.734 35.9779 107.231C35.7166 106.725 35.5859 106.127 35.5859 105.437C35.5859 104.764 35.7166 104.173 35.9779 103.664C36.2393 103.156 36.6072 102.76 37.0816 102.475C37.5589 102.191 38.1186 102.049 38.7606 102.049C39.1924 102.049 39.5944 102.119 39.9666 102.258C40.3416 102.394 40.6683 102.6 40.9467 102.876C41.2279 103.152 41.4467 103.498 41.6029 103.916C41.7592 104.331 41.8373 104.816 41.8373 105.373V105.872H36.3103V104.747H40.1285C40.1285 104.485 40.0717 104.254 39.958 104.052C39.8444 103.85 39.6867 103.693 39.485 103.579C39.2862 103.463 39.0546 103.404 38.7904 103.404C38.5149 103.404 38.2705 103.468 38.0575 103.596C37.8472 103.721 37.6825 103.89 37.5632 104.103C37.4438 104.314 37.3828 104.548 37.3799 104.806V105.876C37.3799 106.2 37.4396 106.48 37.5589 106.716C37.6811 106.951 37.8529 107.133 38.0745 107.261C38.2961 107.389 38.5589 107.453 38.8629 107.453C39.0646 107.453 39.2492 107.424 39.4168 107.368C39.5845 107.311 39.7279 107.225 39.8472 107.112C39.9666 106.998 40.0575 106.859 40.12 106.694L41.7989 106.805C41.7137 107.208 41.539 107.561 41.2748 107.862C41.0134 108.16 40.6754 108.393 40.2606 108.561C39.8487 108.725 39.3728 108.808 38.833 108.808ZM44.8884 108.804C44.4708 108.804 44.0987 108.731 43.772 108.586C43.4453 108.439 43.1867 108.221 42.9964 107.934C42.8089 107.644 42.7151 107.284 42.7151 106.852C42.7151 106.488 42.7819 106.183 42.9154 105.936C43.0489 105.689 43.2308 105.49 43.4609 105.339C43.691 105.189 43.9524 105.075 44.245 104.998C44.5404 104.921 44.8501 104.868 45.1739 104.836C45.5546 104.796 45.8614 104.76 46.0944 104.725C46.3274 104.689 46.4964 104.635 46.6015 104.564C46.7066 104.493 46.7592 104.387 46.7592 104.248V104.223C46.7592 103.953 46.6739 103.744 46.5035 103.596C46.3359 103.448 46.0972 103.375 45.7876 103.375C45.4609 103.375 45.2009 103.447 45.0078 103.592C44.8146 103.734 44.6867 103.913 44.6242 104.129L42.9453 103.993C43.0305 103.595 43.1981 103.251 43.4481 102.961C43.6981 102.669 44.0205 102.444 44.4154 102.288C44.8132 102.129 45.2734 102.049 45.7961 102.049C46.1597 102.049 46.5078 102.092 46.8401 102.177C47.1754 102.262 47.4722 102.394 47.7308 102.573C47.9921 102.752 48.1981 102.983 48.3487 103.264C48.4992 103.542 48.5745 103.876 48.5745 104.265V108.68H46.8529V107.772H46.8018C46.6967 107.977 46.5561 108.157 46.3799 108.314C46.2038 108.467 45.9921 108.588 45.745 108.676C45.4978 108.761 45.2123 108.804 44.8884 108.804ZM45.4083 107.551C45.6754 107.551 45.9112 107.498 46.1157 107.393C46.3203 107.285 46.4808 107.14 46.5972 106.958C46.7137 106.777 46.772 106.571 46.772 106.341V105.646C46.7151 105.683 46.637 105.717 46.5376 105.748C46.441 105.777 46.3316 105.804 46.2095 105.829C46.0873 105.852 45.9651 105.873 45.843 105.893C45.7208 105.91 45.61 105.926 45.5106 105.94C45.2975 105.971 45.1114 106.021 44.9524 106.089C44.7933 106.157 44.6697 106.25 44.5816 106.366C44.4936 106.48 44.4495 106.622 44.4495 106.792C44.4495 107.039 44.539 107.228 44.718 107.359C44.8998 107.487 45.1299 107.551 45.4083 107.551ZM55.8508 102.135L53.5624 108.68H51.517L49.2286 102.135H51.1462L52.5056 106.818H52.5738L53.9289 102.135H55.8508ZM59.5518 108.808C58.8785 108.808 58.2989 108.671 57.8132 108.399C57.3302 108.123 56.958 107.734 56.6967 107.231C56.4353 106.725 56.3046 106.127 56.3046 105.437C56.3046 104.764 56.4353 104.173 56.6967 103.664C56.958 103.156 57.3259 102.76 57.8004 102.475C58.2776 102.191 58.8373 102.049 59.4793 102.049C59.9112 102.049 60.3132 102.119 60.6853 102.258C61.0603 102.394 61.387 102.6 61.6654 102.876C61.9467 103.152 62.1654 103.498 62.3217 103.916C62.4779 104.331 62.5561 104.816 62.5561 105.373V105.872H57.0291V104.747H60.8472C60.8472 104.485 60.7904 104.254 60.6768 104.052C60.5632 103.85 60.4055 103.693 60.2038 103.579C60.0049 103.463 59.7734 103.404 59.5092 103.404C59.2336 103.404 58.9893 103.468 58.7762 103.596C58.566 103.721 58.4012 103.89 58.2819 104.103C58.1626 104.314 58.1015 104.548 58.0987 104.806V105.876C58.0987 106.2 58.1583 106.48 58.2776 106.716C58.3998 106.951 58.5717 107.133 58.7933 107.261C59.0149 107.389 59.2776 107.453 59.5816 107.453C59.7833 107.453 59.968 107.424 60.1356 107.368C60.3032 107.311 60.4467 107.225 60.566 107.112C60.6853 106.998 60.7762 106.859 60.8387 106.694L62.5177 106.805C62.4325 107.208 62.2578 107.561 61.9936 107.862C61.7322 108.16 61.3941 108.393 60.9793 108.561C60.5674 108.725 60.0916 108.808 59.5518 108.808ZM23.4048 123.68V117.135H25.1647V118.277H25.2329C25.3522 117.87 25.5525 117.564 25.8337 117.356C26.115 117.146 26.4389 117.041 26.8053 117.041C26.8962 117.041 26.9943 117.046 27.0994 117.058C27.2045 117.069 27.2968 117.085 27.3764 117.105V118.716C27.2911 118.69 27.1732 118.667 27.0227 118.647C26.8721 118.627 26.7343 118.618 26.6093 118.618C26.3423 118.618 26.1036 118.676 25.8934 118.792C25.686 118.906 25.5212 119.065 25.3991 119.269C25.2798 119.474 25.2201 119.71 25.2201 119.977V123.68H23.4048ZM30.9932 123.808C30.3199 123.808 29.7404 123.671 29.2546 123.399C28.7716 123.123 28.3994 122.734 28.1381 122.231C27.8767 121.725 27.746 121.127 27.746 120.437C27.746 119.764 27.8767 119.173 28.1381 118.664C28.3994 118.156 28.7673 117.76 29.2418 117.475C29.719 117.191 30.2787 117.049 30.9208 117.049C31.3526 117.049 31.7546 117.119 32.1267 117.258C32.5017 117.394 32.8284 117.6 33.1068 117.876C33.3881 118.152 33.6068 118.498 33.7631 118.916C33.9193 119.331 33.9975 119.816 33.9975 120.373V120.872H28.4705V119.747H32.2886C32.2886 119.485 32.2318 119.254 32.1182 119.052C32.0046 118.85 31.8469 118.693 31.6452 118.579C31.4463 118.463 31.2148 118.404 30.9506 118.404C30.675 118.404 30.4307 118.468 30.2176 118.596C30.0074 118.721 29.8426 118.89 29.7233 119.103C29.604 119.314 29.5429 119.548 29.5401 119.806V120.876C29.5401 121.2 29.5997 121.48 29.719 121.716C29.8412 121.951 30.0131 122.133 30.2347 122.261C30.4563 122.389 30.719 122.453 31.023 122.453C31.2247 122.453 31.4094 122.424 31.577 122.368C31.7446 122.311 31.8881 122.225 32.0074 122.112C32.1267 121.998 32.2176 121.859 32.2801 121.694L33.9591 121.805C33.8739 122.208 33.6992 122.561 33.435 122.862C33.1736 123.16 32.8355 123.393 32.4208 123.561C32.0088 123.725 31.533 123.808 30.9932 123.808ZM41.1086 117.135L38.8203 123.68H36.7748L34.4864 117.135H36.4041L37.7634 121.818H37.8316L39.1867 117.135H41.1086ZM42.0376 123.68V117.135H43.8529V123.68H42.0376ZM42.9495 116.291C42.6796 116.291 42.4481 116.201 42.2549 116.022C42.0646 115.841 41.9694 115.623 41.9694 115.37C41.9694 115.12 42.0646 114.906 42.2549 114.727C42.4481 114.545 42.6796 114.454 42.9495 114.454C43.2194 114.454 43.4495 114.545 43.6399 114.727C43.833 114.906 43.9296 115.12 43.9296 115.37C43.9296 115.623 43.833 115.841 43.6399 116.022C43.4495 116.201 43.2194 116.291 42.9495 116.291ZM48.2901 123.808C47.6168 123.808 47.0372 123.671 46.5514 123.399C46.0685 123.123 45.6963 122.734 45.435 122.231C45.1736 121.725 45.0429 121.127 45.0429 120.437C45.0429 119.764 45.1736 119.173 45.435 118.664C45.6963 118.156 46.0642 117.76 46.5386 117.475C47.0159 117.191 47.5756 117.049 48.2176 117.049C48.6494 117.049 49.0514 117.119 49.4236 117.258C49.7986 117.394 50.1253 117.6 50.4037 117.876C50.685 118.152 50.9037 118.498 51.06 118.916C51.2162 119.331 51.2943 119.816 51.2943 120.373V120.872H45.7673V119.747H49.5855C49.5855 119.485 49.5287 119.254 49.4151 119.052C49.3014 118.85 49.1438 118.693 48.9421 118.579C48.7432 118.463 48.5117 118.404 48.2475 118.404C47.9719 118.404 47.7276 118.468 47.5145 118.596C47.3043 118.721 47.1395 118.89 47.0202 119.103C46.9009 119.314 46.8398 119.548 46.8369 119.806V120.876C46.8369 121.2 46.8966 121.48 47.0159 121.716C47.1381 121.951 47.31 122.133 47.5315 122.261C47.7531 122.389 48.0159 122.453 48.3199 122.453C48.5216 122.453 48.7063 122.424 48.8739 122.368C49.0415 122.311 49.185 122.225 49.3043 122.112C49.4236 121.998 49.5145 121.859 49.577 121.694L51.256 121.805C51.1708 122.208 50.996 122.561 50.7318 122.862C50.4705 123.16 50.1324 123.393 49.7176 123.561C49.3057 123.725 48.8298 123.808 48.2901 123.808ZM53.7233 123.68L51.9421 117.135H53.7787L54.7929 121.532H54.8526L55.9094 117.135H57.7119L58.7858 121.507H58.8412L59.8384 117.135H61.6708L59.8938 123.68H57.9719L56.8469 119.564H56.7659L55.6409 123.68H53.7233ZM68.0852 119.001L66.4232 119.103C66.3948 118.961 66.3337 118.833 66.24 118.72C66.1462 118.603 66.0227 118.511 65.8693 118.443C65.7187 118.372 65.5383 118.336 65.3281 118.336C65.0468 118.336 64.8096 118.396 64.6164 118.515C64.4232 118.632 64.3266 118.788 64.3266 118.984C64.3266 119.14 64.3891 119.272 64.5141 119.38C64.6391 119.488 64.8536 119.575 65.1576 119.64L66.3423 119.879C66.9786 120.01 67.4531 120.22 67.7656 120.51C68.0781 120.799 68.2343 121.18 68.2343 121.652C68.2343 122.081 68.1079 122.457 67.8551 122.781C67.6051 123.105 67.2613 123.358 66.8238 123.539C66.3891 123.718 65.8877 123.808 65.3195 123.808C64.4531 123.808 63.7627 123.627 63.2485 123.267C62.7372 122.903 62.4374 122.409 62.3494 121.784L64.1349 121.69C64.1889 121.954 64.3195 122.156 64.5269 122.295C64.7343 122.431 64.9999 122.5 65.3238 122.5C65.642 122.5 65.8977 122.439 66.0909 122.316C66.2869 122.191 66.3863 122.031 66.3891 121.835C66.3863 121.67 66.3167 121.535 66.1803 121.43C66.044 121.322 65.8337 121.24 65.5497 121.183L64.4161 120.957C63.7769 120.829 63.3011 120.608 62.9886 120.292C62.6789 119.977 62.5241 119.575 62.5241 119.086C62.5241 118.666 62.6377 118.304 62.865 118C63.0951 117.696 63.4176 117.461 63.8323 117.296C64.2499 117.132 64.7386 117.049 65.2982 117.049C66.1249 117.049 66.7755 117.224 67.2499 117.573C67.7272 117.923 68.0056 118.399 68.0852 119.001Z" fill="black"/>
</svg>
